<svg version="1.1" id="Layer_1" xmlns="http://www.w3.org/2000/svg" xmlns:xlink="http://www.w3.org/1999/xlink" x="0px" y="0px"
	 width="100%" viewBox="0 0 496 496" enable-background="new 0 0 496 496" xml:space="preserve">
<path fill="#000000" opacity="1.000000" stroke="none" 
	d="
M204.696472,248.501053 
	C206.542572,240.854492 208.240067,233.569809 210.189774,226.353256 
	C211.140717,222.833435 210.149063,221.301971 206.477463,221.343201 
	C200.982910,221.404907 195.485489,221.409546 189.991898,221.303131 
	C183.842026,221.183990 178.886475,217.341690 178.860870,211.399155 
	C178.795685,196.275604 177.600708,181.108902 179.518539,166.024353 
	C180.869370,155.399475 185.772995,146.476181 193.419601,139.053558 
	C196.643845,135.923782 199.977173,132.904617 203.312531,129.892319 
	C204.162262,129.124893 205.240173,127.974815 206.160156,128.022614 
	C212.595596,128.356903 212.969833,123.828537 213.781479,119.262505 
	C215.505890,109.561935 218.605148,107.059891 228.692383,107.015846 
	C243.846176,106.949669 259.000519,106.940208 274.154388,106.988899 
	C283.698029,107.019569 286.415588,109.319939 288.426605,118.710213 
	C288.809174,120.496429 289.110840,122.302582 289.563416,124.070465 
	C290.039276,125.929420 290.866180,127.730705 293.150391,127.552811 
	C296.794800,127.268951 298.920074,129.545532 301.242828,131.737152 
	C308.508850,138.592926 316.189514,145.084442 319.942291,154.795151 
	C321.993500,160.102859 323.691315,165.524307 323.758423,171.236740 
	C323.912933,184.389603 323.986145,197.546677 323.818665,210.698563 
	C323.741730,216.739105 318.951324,221.122925 312.745880,221.244461 
	C305.970093,221.377213 299.189697,221.274658 292.810822,221.274658 
	C291.342926,223.783066 292.126495,225.595703 292.528931,227.301392 
	C293.941559,233.288239 295.532227,239.232941 297.039307,245.197662 
	C298.713806,251.824997 298.595032,252.013016 291.885712,252.027359 
	C266.240540,252.082230 240.595322,252.112106 214.950119,252.144531 
	C212.619278,252.147476 210.286865,252.145889 207.957962,252.065643 
	C205.957672,251.996689 204.224014,251.539780 204.696472,248.501053 
M238.499985,189.678986 
	C252.990036,189.679810 267.480133,189.706924 281.970093,189.665695 
	C286.410919,189.653061 290.477417,190.601257 292.383453,194.997070 
	C294.277374,199.365067 294.183929,203.776993 290.484467,207.458588 
	C289.271881,208.665359 288.102814,209.833435 289.136993,211.781174 
	C290.054840,213.509796 291.588104,213.924316 293.324280,213.933273 
	C299.152618,213.963333 304.981812,214.020081 310.809296,213.950958 
	C314.957397,213.901794 316.708954,211.562332 316.690002,207.528168 
	C316.642273,197.368698 316.629364,187.208527 316.698364,177.049286 
	C316.729309,172.492996 314.708252,170.321289 310.075531,170.327377 
	C271.102264,170.378677 232.128922,170.394455 193.155640,170.366241 
	C188.636398,170.362976 186.226105,172.342224 186.226547,176.899734 
	C186.227539,187.224869 186.338608,197.550095 186.317749,207.875092 
	C186.309128,212.140640 188.550507,213.886871 192.532913,213.907501 
	C197.529068,213.933380 202.526855,213.994354 207.520920,213.892319 
	C209.419281,213.853531 211.643860,214.428345 212.910583,212.224777 
	C214.375412,209.676514 212.299225,208.327667 211.075684,206.602768 
	C208.606323,203.121536 207.783752,199.350662 209.762299,195.324249 
	C211.747253,191.284836 215.119934,189.642105 219.512421,189.676071 
	C225.507935,189.722443 231.504120,189.682510 238.499985,189.678986 
M245.499969,162.730469 
	C266.641296,162.726288 287.782623,162.742477 308.923889,162.703171 
	C314.012787,162.693710 314.558899,161.790436 312.536743,157.162125 
	C308.744904,148.483322 301.923065,142.385468 294.873535,136.482864 
	C293.323395,135.184906 291.473969,135.298050 289.647614,135.299713 
	C264.011810,135.322998 238.376007,135.351425 212.740204,135.381836 
	C210.908295,135.384003 208.996872,135.243744 207.495041,136.539612 
	C201.063690,142.089035 194.577301,147.580688 190.803909,155.497131 
	C188.065247,161.242737 188.829483,162.679276 195.059357,162.694366 
	C211.539490,162.734283 228.019745,162.721680 245.499969,162.730469 
M233.554321,210.291565 
	C232.056061,210.299866 230.537903,210.469299 229.063202,210.286987 
	C224.173187,209.682449 221.322495,211.275345 220.281342,216.538834 
	C218.801285,224.021088 216.705902,231.385712 214.753387,238.768845 
	C213.672546,242.855850 214.949417,244.722488 219.297211,244.709061 
	C241.105194,244.641815 262.913544,244.641541 284.721619,244.687164 
	C288.224396,244.694504 288.959412,243.445740 288.025024,240.077072 
	C285.850372,232.236588 283.736420,224.351364 282.221100,216.365997 
	C281.261932,211.311386 278.757507,210.074890 273.992188,210.174896 
	C260.846252,210.450790 247.691025,210.283676 233.554321,210.291565 
M282.096191,125.451698 
	C281.977112,124.629433 281.846680,123.808632 281.740723,122.984680 
	C280.749969,115.278305 279.688538,114.304321 272.037872,114.296379 
	C261.731293,114.285683 251.424652,114.311790 241.118042,114.322845 
	C236.629700,114.327667 232.137085,114.213593 227.654160,114.372330 
	C222.626831,114.550354 220.989838,117.113792 220.854187,123.884598 
	C220.748657,129.151947 224.659622,127.554565 227.225037,127.574341 
	C243.681412,127.701157 260.139404,127.663826 276.596466,127.590500 
	C278.449524,127.582237 280.683990,128.441452 282.096191,125.451698 
M256.500000,202.742615 
	C263.978058,202.743759 271.457642,202.829727 278.933350,202.697708 
	C281.385376,202.654404 285.330688,203.709320 285.374268,200.022415 
	C285.424561,195.765778 281.199799,197.175323 278.721832,197.160278 
	C260.443085,197.049438 242.163162,197.132553 223.883606,197.167969 
	C222.556824,197.170532 221.224167,197.218704 219.905319,197.353836 
	C218.663559,197.481079 217.597809,198.051453 217.475967,199.426422 
	C217.340134,200.959488 218.280090,202.046005 219.643967,202.380707 
	C221.071335,202.730942 222.604813,202.736801 224.092239,202.740036 
	C234.561432,202.762817 245.030731,202.746078 256.500000,202.742615 
z"/>
<path fill="#000000" opacity="1.000000" stroke="none" 
	d="
M350.436218,315.240906 
	C345.973419,312.517517 341.231171,315.879608 337.464539,314.078003 
	C339.369568,299.637543 339.175079,285.580383 337.572235,270.440582 
	C338.529816,269.393127 340.788757,268.923553 343.478241,269.228699 
	C345.389313,274.422028 343.249725,279.903748 344.857086,284.959015 
	C359.933350,284.657806 366.210571,288.905518 366.300232,299.331909 
	C366.379578,308.562103 360.104614,315.044128 350.436218,315.240906 
M360.578033,298.061188 
	C360.046082,296.489563 359.751465,294.780182 358.934967,293.373749 
	C356.969238,289.987762 354.153595,287.576691 349.950958,288.554474 
	C345.754761,289.530792 344.145966,292.650696 344.267639,296.811310 
	C344.340729,299.308441 344.189026,301.820099 344.397308,304.303497 
	C344.694122,307.841736 346.864685,310.130432 350.104309,311.171936 
	C353.373962,312.223053 355.958282,310.555634 358.014404,308.204803 
	C360.332428,305.554535 361.009186,302.326019 360.578033,298.061188 
z"/>
<path fill="#000000" opacity="1.000000" stroke="none" 
	d="
M294.311707,275.350342 
	C294.091827,277.229706 293.393005,278.230957 292.225494,276.596161 
	C287.828857,270.439697 281.831055,271.342255 276.036499,273.215332 
	C269.300262,275.392822 265.459869,280.558197 264.379517,287.520508 
	C262.847229,297.395142 268.150391,306.545868 277.385590,310.383789 
	C283.521271,312.933624 288.503693,311.769470 293.048553,306.754700 
	C293.571228,306.178009 294.206207,305.703094 294.850220,305.126312 
	C297.441742,310.511993 296.663208,312.461884 291.540253,313.998169 
	C274.728271,319.039886 261.139923,310.960419 258.163269,294.152710 
	C256.277710,283.505951 264.390259,271.618591 275.376312,268.891266 
	C280.135986,267.709656 284.841980,267.751068 289.648590,268.831390 
	C293.140411,269.616211 294.954376,271.243195 294.311707,275.350342 
z"/>
<path fill="#000000" opacity="1.000000" stroke="none" 
	d="
M118.205643,268.572937 
	C125.962166,270.234314 126.389366,270.881653 124.430847,278.231781 
	C120.138412,270.834686 113.711700,270.608521 107.019485,272.958710 
	C100.177490,275.361511 96.294632,280.617920 95.310669,287.827728 
	C94.110382,296.622620 97.500366,303.542603 104.634598,308.486420 
	C112.107658,313.665070 117.987572,312.644958 125.746033,305.376434 
	C128.599106,310.039978 127.778381,312.393829 122.775749,313.895203 
	C106.577682,318.756561 92.474022,311.233154 89.614998,296.206055 
	C86.396454,279.289337 100.753731,265.174835 118.205643,268.572937 
z"/>
<path fill="#000000" opacity="1.000000" stroke="none" 
	d="
M380.307129,314.196198 
	C372.101898,310.136261 368.862274,303.248169 371.003387,295.141785 
	C372.892609,287.988953 378.791077,284.131653 387.041931,284.653412 
	C393.657043,285.071716 399.131958,290.955750 399.259247,297.630646 
	C399.309265,300.254791 398.044342,301.194122 395.619354,301.187927 
	C391.288696,301.176849 386.957031,301.182281 382.627594,301.270752 
	C380.843140,301.307220 378.949890,300.843170 377.067261,302.225800 
	C376.889954,306.347382 379.381073,308.904083 382.801636,310.503357 
	C389.016235,313.408936 393.527008,309.972321 397.772491,305.568542 
	C399.339142,309.468872 398.393463,311.773865 394.768738,313.326843 
	C390.135223,315.312073 385.531097,316.009888 380.307129,314.196198 
M392.904480,293.525055 
	C390.761841,289.263306 387.329620,287.288177 382.700439,288.632172 
	C379.155029,289.661560 376.873260,292.145416 376.843933,296.644073 
	C381.775269,297.415436 386.540955,297.129822 391.287628,296.927673 
	C392.874786,296.860077 393.655884,295.860321 392.904480,293.525055 
z"/>
<path fill="#000000" opacity="1.000000" stroke="none" 
	d="
M328.611816,292.807556 
	C328.899780,299.971832 327.289124,306.865173 330.801453,314.527435 
	C323.977570,313.033600 318.152649,316.501892 311.951080,314.962830 
	C307.052673,313.747131 304.354431,309.893677 303.568298,304.375366 
	C302.753723,298.657806 304.108093,292.721588 301.579407,287.043823 
	C303.475189,285.478455 305.713715,284.171997 307.881439,285.037048 
	C310.385529,286.036377 309.182495,288.848846 309.262085,290.865723 
	C309.432495,295.185333 309.207123,299.520020 309.358368,303.841034 
	C309.503387,307.984283 311.560150,310.914551 315.839966,311.388824 
	C319.308441,311.773224 322.776184,307.964722 322.713165,303.696350 
	C322.631042,298.132904 323.858154,292.445648 321.334320,286.913666 
	C323.388275,285.536621 325.656036,283.906097 327.713440,285.349426 
	C330.063904,286.998352 328.405243,289.997925 328.611816,292.807556 
z"/>
<path fill="#000000" opacity="1.000000" stroke="none" 
	d="
M183.630829,306.979431 
	C178.921204,294.979340 186.799484,283.760742 198.787262,284.568390 
	C206.342422,285.077393 212.163406,289.802551 213.216675,297.212463 
	C214.246033,304.454163 209.758835,312.155487 203.186371,314.427368 
	C195.849396,316.963501 188.596283,314.309875 183.630829,306.979431 
M206.682800,295.040009 
	C204.880905,290.901276 202.085022,288.069000 197.230362,288.339294 
	C193.204697,288.563385 190.389267,290.655518 188.901001,294.436981 
	C186.938156,299.424286 188.392960,305.653625 192.320801,309.057343 
	C195.203415,311.555267 198.286835,312.526398 201.902802,310.488586 
	C206.408920,307.949127 208.330032,303.457886 207.408676,297.190918 
	C207.337311,296.705414 207.105392,296.243469 206.682800,295.040009 
z"/>
<path fill="#000000" opacity="1.000000" stroke="none" 
	d="
M151.276657,314.540009 
	C141.582489,316.727905 133.633240,312.407440 131.382431,304.040253 
	C129.221375,296.006775 133.432205,288.036499 141.258240,285.347321 
	C149.407883,282.546936 157.942352,285.991699 160.868362,293.262573 
	C164.313995,301.824677 160.648254,310.234863 151.276657,314.540009 
M152.640533,309.181580 
	C154.930191,307.241974 155.950119,304.551025 156.374985,301.776001 
	C157.046432,297.390472 155.366913,293.639587 152.225266,290.595764 
	C149.560989,288.014526 146.306686,287.660767 142.972290,288.872314 
	C137.355789,290.913086 134.958420,298.747467 137.920486,304.934753 
	C140.951202,311.265411 146.001297,312.946503 152.640533,309.181580 
z"/>
<path fill="#000000" opacity="1.000000" stroke="none" 
	d="
M169.635391,285.051270 
	C169.425140,280.006958 170.607025,275.277191 167.532089,271.020691 
	C169.781723,269.590302 171.953354,268.138550 174.156830,269.263947 
	C176.218353,270.316833 175.257828,272.874176 175.273102,274.765320 
	C175.350983,284.414062 175.291061,294.063873 175.303238,303.713287 
	C175.307556,307.141571 174.850372,310.632355 176.872009,313.778961 
	C173.799393,315.380188 171.141251,314.947479 168.339539,313.749878 
	C170.839462,304.392914 169.138443,294.923157 169.635391,285.051270 
z"/>
<path fill="#000000" opacity="1.000000" stroke="none" 
	d="
M226.389313,285.650085 
	C229.430435,285.036560 232.141891,284.003510 234.973633,285.058136 
	C236.252640,285.534485 237.444916,286.300507 236.807098,288.021240 
	C236.314240,289.350952 235.604492,290.073853 233.867615,289.988861 
	C227.238892,289.664429 225.940033,290.850464 226.041061,297.414124 
	C226.124313,302.822113 225.167816,308.321381 227.306107,313.780212 
	C224.440689,314.864349 221.770493,314.868225 219.063019,313.907043 
	C220.139511,304.942169 220.754852,296.132660 218.716141,286.916199 
	C220.786194,285.747925 223.037750,284.059875 226.389313,285.650085 
z"/>
<path fill="#000000" opacity="1.000000" stroke="none" 
	d="
M148.758347,338.379761 
	C155.178772,340.529266 155.618835,341.091522 153.192368,347.241699 
	C152.291351,349.525421 154.769333,350.821503 153.929749,352.793732 
	C151.237900,353.833374 150.925797,350.680878 149.123199,350.153137 
	C147.687469,350.438904 148.083054,352.616089 146.377350,352.784241 
	C145.449036,352.735107 144.882156,351.870300 145.059982,351.148376 
	C146.113266,346.872345 141.471817,341.093628 148.758347,338.379761 
z"/>
<path fill="#000000" opacity="1.000000" stroke="none" 
	d="
M277.206421,353.128845 
	C276.069214,351.440460 275.226379,349.868683 274.396149,348.320343 
	C271.699219,348.866028 273.334381,352.646454 269.844727,353.064423 
	C269.736084,348.033630 271.120728,343.581055 273.099213,338.076996 
	C274.790710,341.484009 275.989441,343.898499 277.343689,346.626221 
	C279.737915,344.582733 279.182587,341.079590 282.200592,339.177673 
	C283.695038,343.695862 285.241272,347.930847 284.898468,353.217529 
	C281.815033,351.870911 282.826294,348.914307 281.025452,347.631805 
	C279.315613,349.148254 279.803040,352.100250 277.206421,353.128845 
z"/>
<path fill="#000000" opacity="1.000000" stroke="none" 
	d="
M217.902283,338.603760 
	C223.481262,339.419708 225.019440,343.237671 224.820023,347.635406 
	C224.672760,350.882751 222.204590,352.846741 218.851532,353.324127 
	C214.878448,353.889771 212.061844,352.313080 210.475723,348.659332 
	C208.519684,344.153534 211.374039,340.118469 217.902283,338.603760 
M219.482819,345.915680 
	C221.587311,345.449615 222.110229,344.384216 220.366043,342.922882 
	C218.709778,341.535217 216.789536,340.981415 214.968185,342.709076 
	C213.231125,344.356842 212.422440,346.427185 213.893707,348.524994 
	C215.344406,350.593445 217.358093,351.518311 219.295914,350.145569 
	C220.721451,348.073029 214.667770,348.289337 219.482819,345.915680 
z"/>
<path fill="#000000" opacity="1.000000" stroke="none" 
	d="
M167.262543,340.165619 
	C168.569519,342.042603 169.694412,343.661621 171.120117,345.713562 
	C172.519226,343.535278 170.961823,340.667938 174.124908,338.815948 
	C175.999451,343.776825 174.725250,348.435272 174.919601,353.404266 
	C170.917160,352.894806 171.130096,348.775513 168.376938,347.788025 
	C166.352295,348.846375 168.401917,351.754822 166.260880,352.768860 
	C164.223541,350.545807 163.273468,341.125305 165.050491,339.176208 
	C165.750107,338.408875 166.503723,339.340729 167.262543,340.165619 
z"/>
<path fill="#000000" opacity="1.000000" stroke="none" 
	d="
M252.508942,343.840393 
	C256.130951,338.211304 260.148499,337.104248 264.071106,340.325317 
	C267.697968,343.303497 268.072601,347.861969 264.917480,351.229126 
	C262.451599,353.860657 259.301575,354.332520 256.266968,352.873291 
	C252.789169,351.200897 251.217041,348.197968 252.508942,343.840393 
M256.963257,342.680542 
	C254.829437,344.898285 254.282837,347.258453 256.689819,349.571350 
	C258.309082,351.127319 260.307892,351.163940 262.125946,349.908813 
	C264.013885,348.605499 264.411011,346.570587 263.474609,344.643402 
	C262.304565,342.235260 260.472168,340.651031 256.963257,342.680542 
z"/>
<path fill="#000000" opacity="1.000000" stroke="none" 
	d="
M204.276779,352.510986 
	C202.626083,350.980560 202.343903,348.634888 200.165298,348.036255 
	C198.476517,349.204651 200.064072,351.849854 197.272903,352.967651 
	C194.933197,348.384644 197.408020,343.736755 196.426239,338.897247 
	C199.812012,339.579498 200.092026,342.804688 202.098419,343.822998 
	C204.400452,343.090729 202.827560,340.068054 205.056885,339.507141 
	C207.197571,343.640167 206.905930,350.945770 204.276779,352.510986 
z"/>
<path fill="#000000" opacity="1.000000" stroke="none" 
	d="
M294.760925,347.876038 
	C291.401886,348.102081 291.639435,351.301514 289.434692,353.469910 
	C287.254486,348.528046 288.107849,343.963806 289.290466,339.836243 
	C289.964966,337.482117 293.049042,338.523865 294.988495,339.372925 
	C297.342926,340.403564 298.552917,342.300049 297.802155,344.970795 
	C297.422272,346.322357 296.342194,347.129089 294.760925,347.876038 
z"/>
<path fill="#000000" opacity="1.000000" stroke="none" 
	d="
M236.496841,349.969666 
	C235.110901,346.189331 235.258530,343.009705 238.235291,340.519287 
	C240.449600,338.666779 242.954788,338.174438 245.698746,339.375336 
	C247.442566,340.138519 248.835953,341.121094 248.951431,343.795013 
	C245.507126,343.259766 242.037247,339.689331 239.202347,344.039429 
	C238.194443,345.586060 238.142548,347.208099 239.211777,348.724274 
	C242.117966,352.845276 245.389389,349.284485 248.843033,348.740570 
	C248.744064,351.750946 247.088852,352.782227 244.902161,353.384766 
	C241.424728,354.342926 238.668915,353.391632 236.496841,349.969666 
z"/>
<path fill="#000000" opacity="1.000000" stroke="none" 
	d="
M325.448242,344.099670 
	C325.438629,347.288666 325.438629,350.083405 325.438629,353.295105 
	C321.711639,352.302490 321.476715,348.649689 319.018219,347.329132 
	C317.511200,348.964630 318.900116,351.477997 316.310333,353.379791 
	C314.613922,348.488007 315.349213,344.069275 315.923004,339.490540 
	C319.248108,340.237946 319.308380,343.927307 321.948425,344.848267 
	C323.644653,343.428192 321.713135,340.733673 324.171936,339.407623 
	C325.881775,340.417328 325.264221,342.213348 325.448242,344.099670 
z"/>
<path fill="#000000" opacity="1.000000" stroke="none" 
	d="
M136.663757,348.671997 
	C134.939499,349.826477 135.722122,352.165619 133.091064,353.184174 
	C132.268875,348.587128 131.801346,343.989258 133.311493,339.912292 
	C134.338959,337.138458 137.633789,338.282898 139.737823,339.733582 
	C142.260559,341.472961 143.117020,343.914734 140.821045,346.410034 
	C139.889008,347.422974 138.278793,347.811920 136.663757,348.671997 
z"/>
<path fill="#000000" opacity="1.000000" stroke="none" 
	d="
M310.256653,346.834167 
	C311.197571,348.933777 312.482910,350.598053 311.406128,353.377563 
	C307.815155,349.261475 304.236511,349.738434 299.811462,354.334534 
	C300.796600,347.566254 303.701752,343.420441 305.532959,337.968475 
	C308.612762,340.797302 308.684631,344.020325 310.256653,346.834167 
z"/>
<path fill="#000000" opacity="1.000000" stroke="none" 
	d="
M329.237610,340.199463 
	C332.643677,338.050568 332.387817,342.472015 334.632904,342.883057 
	C336.985046,342.753021 336.902527,338.785309 340.703369,339.343018 
	C338.495300,343.833160 335.514984,347.799591 334.913239,352.989349 
	C334.174896,348.048401 331.511322,344.375214 329.237610,340.199463 
z"/>
<path fill="#000000" opacity="1.000000" stroke="none" 
	d="
M181.889526,352.535278 
	C180.378967,350.569794 180.767242,348.535583 180.824509,346.604492 
	C180.900696,344.036072 180.499268,341.761383 177.652817,339.998901 
	C181.026291,338.244720 183.699432,337.678009 187.165573,339.936493 
	C183.380280,341.813049 183.477325,344.733124 183.869934,347.928772 
	C184.074310,349.592194 184.335159,351.632111 181.889526,352.535278 
z"/>
<path fill="#000000" opacity="1.000000" stroke="none" 
	d="
M157.774658,344.199036 
	C157.997925,342.212494 157.284775,340.367859 160.015747,338.939606 
	C161.597107,343.808716 161.514481,348.255005 159.873459,353.410797 
	C156.610306,350.511200 158.216309,347.368744 157.774658,344.199036 
z"/>
<path fill="#000000" opacity="1.000000" stroke="none" 
	d="
M189.603348,342.846497 
	C189.727264,341.235870 189.171402,339.708862 191.962112,338.887939 
	C192.709244,343.707123 193.683670,348.208923 191.396469,353.623810 
	C188.047852,349.967682 190.263550,346.370636 189.603348,342.846497 
z"/>
</svg>