<?xml version="1.0" standalone="no"?>
<!DOCTYPE svg PUBLIC "-//W3C//DTD SVG 20010904//EN"
 "http://www.w3.org/TR/2001/REC-SVG-20010904/DTD/svg10.dtd">
<svg version="1.0" xmlns="http://www.w3.org/2000/svg"
 width="80.000000pt" height="20.000000pt" viewBox="0 0 812.000000 126.000000"
 preserveAspectRatio="xMidYMid meet">

<g transform="translate(0.000000,126.000000) scale(0.100000,-0.100000)"
fill="#000000" stroke="none">
<path d="M2 628 l-2 -628 4060 0 4060 0 -2 628 -3 627 -2 -622 -3 -623 -4050
0 -4050 0 -3 623 -2 622 -3 -627z"/>
<path d="M286 1184 c-96 -30 -164 -92 -207 -188 -19 -44 -20 -63 -17 -384 3
-330 3 -338 26 -380 28 -53 79 -104 141 -140 l46 -27 350 0 350 0 48 25 c59
30 121 96 150 158 21 45 22 60 22 377 l0 330 -26 55 c-32 68 -87 122 -159 158
l-55 27 -310 2 c-255 2 -319 0 -359 -13z m702 -127 c23 -15 54 -46 69 -69 l28
-42 0 -322 0 -322 -30 -44 c-17 -23 -51 -54 -75 -68 -45 -25 -48 -25 -328 -28
-233 -3 -291 -1 -336 12 -63 18 -121 72 -137 126 -6 22 -9 152 -7 346 l3 311
27 40 c17 26 45 50 80 67 l53 27 306 -3 306 -3 41 -28z"/>
<path d="M892 994 c-49 -34 -48 -97 2 -130 31 -20 67 -13 96 18 35 38 23 90
-27 116 -29 16 -44 15 -71 -4z"/>
<path d="M523 903 c-61 -21 -136 -92 -164 -155 -17 -39 -23 -72 -24 -123 -1
-253 297 -387 485 -218 70 63 100 129 100 218 0 168 -126 296 -290 294 -36 0
-84 -7 -107 -16z m174 -104 c34 -13 80 -55 99 -91 8 -15 14 -53 14 -85 0 -68
-20 -107 -76 -149 -32 -25 -46 -29 -104 -29 -54 0 -73 5 -102 24 -123 85 -114
257 17 325 35 18 111 21 152 5z"/>
<path d="M1670 395 l0 -335 80 0 80 0 0 335 0 335 -80 0 -80 0 0 -335z"/>
<path d="M4360 395 l0 -335 70 0 70 0 2 220 3 221 135 -178 c90 -118 142 -179
156 -181 17 -2 47 31 155 177 l134 179 3 -219 2 -219 75 0 75 0 0 335 0 335
-64 0 -63 0 -152 -200 -153 -200 -156 200 -155 200 -69 0 -68 0 0 -335z"/>
<path d="M5630 404 c-102 -179 -186 -330 -188 -335 -2 -5 32 -9 76 -9 l81 0
37 70 38 70 212 0 212 0 36 -70 37 -70 90 0 c49 0 89 3 89 8 -1 4 -85 153
-188 332 l-188 325 -79 3 -80 3 -185 -327z m324 62 c36 -68 66 -127 66 -130 0
-3 -61 -6 -136 -6 -75 0 -134 4 -132 9 5 12 133 251 135 251 1 0 31 -56 67
-124z"/>
<path d="M6545 566 l161 -163 -159 -172 -158 -171 98 1 98 0 109 126 110 127
120 -127 121 -128 110 1 110 0 -181 182 -181 183 84 85 c46 47 111 115 144
153 l61 67 -88 0 c-49 0 -93 -4 -99 -8 -8 -6 -181 -195 -193 -212 -2 -3 -51
46 -109 108 l-105 112 -106 0 -107 0 160 -164z"/>
<path d="M2120 335 l0 -275 65 0 65 0 0 180 0 180 225 -180 c224 -179 226
-180 275 -180 l50 0 0 275 0 275 -65 0 -65 0 -2 -175 -3 -175 -224 175 c-220
172 -226 175 -273 175 l-48 0 0 -275z"/>
<path d="M3040 334 l0 -276 248 4 c245 3 247 3 306 30 106 50 151 126 150 253
-1 123 -71 212 -193 249 -43 13 -102 16 -283 16 l-228 0 0 -276z m476 153 c55
-28 75 -60 81 -125 5 -49 2 -69 -16 -105 -34 -70 -65 -81 -248 -85 l-153 -4 0
164 c0 91 3 168 8 173 13 14 295 -1 328 -18z"/>
<path d="M3940 335 l0 -275 70 0 70 0 0 275 0 275 -70 0 -70 0 0 -275z"/>
<path d="M7300 105 l0 -45 380 0 380 0 0 45 0 45 -380 0 -380 0 0 -45z"/>
</g>
</svg>
