<?xml version="1.0" standalone="no"?>
<!DOCTYPE svg PUBLIC "-//W3C//DTD SVG 20010904//EN"
 "http://www.w3.org/TR/2001/REC-SVG-20010904/DTD/svg10.dtd">
<svg version="1.0" xmlns="http://www.w3.org/2000/svg"
 width="195.000000pt" height="85.000000pt" viewBox="0 0 195.000000 85.000000"
 preserveAspectRatio="xMidYMid meet">

<g transform="translate(0.000000,85.000000) scale(0.100000,-0.100000)"
fill="#a36023" stroke="none">
<path d="M835 819 c-101 -13 -237 -53 -334 -100 -278 -132 -426 -343 -456
-646 l-6 -63 99 0 c110 0 112 1 112 68 0 20 7 65 15 100 52 221 237 396 490
463 113 30 326 30 440 0 203 -53 365 -178 443 -341 44 -92 62 -163 62 -240 l0
-50 101 0 102 0 -6 92 c-23 366 -324 647 -764 713 -107 16 -190 17 -298 4z"/>
<path d="M910 452 l0 -178 -30 -29 -30 -29 -30 29 c-39 37 -38 45 5 45 l35 0
0 93 c0 89 -1 94 -36 146 -20 29 -39 49 -44 45 -4 -5 -22 -29 -39 -53 -29 -41
-31 -49 -31 -132 l0 -88 60 -57 c55 -53 60 -60 60 -101 0 -36 3 -43 20 -43 17
0 20 7 20 41 0 35 7 51 46 95 32 38 53 54 70 54 24 0 24 -1 24 -95 l0 -95 81
0 c44 0 89 5 100 10 21 12 27 64 9 75 -8 5 -7 11 0 20 6 8 10 26 8 42 -3 24
-8 29 -43 33 l-40 5 -3 153 c-1 83 -6 152 -10 152 -4 0 -31 -14 -61 -30 -30
-17 -56 -30 -58 -30 -1 0 -3 23 -3 50 l0 50 -40 0 -40 0 0 -178z m258 -219 c3
-22 0 -23 -57 -23 -52 0 -61 3 -61 18 0 29 10 33 65 30 43 -3 50 -6 53 -25z
m0 -75 c-3 -20 -10 -23 -60 -26 -56 -3 -58 -2 -58 23 0 24 2 25 61 25 57 0 60
-1 57 -22z"/>
<path d="M577 543 c-2 -5 -5 -62 -6 -127 -2 -83 1 -121 9 -126 9 -5 1 -28 -27
-76 -67 -115 -67 -114 -44 -114 11 0 22 9 26 20 9 30 129 30 145 0 6 -11 20
-20 31 -20 24 0 26 -6 -30 94 l-44 79 2 138 2 139 -30 0 c-16 0 -32 -3 -34 -7z
m54 -330 c7 -16 15 -31 17 -35 2 -5 -15 -8 -37 -8 -46 0 -47 0 -26 40 19 37
28 38 46 3z"/>
<path d="M1350 410 l0 -130 -25 0 c-25 0 -25 1 -25 80 l0 80 -55 0 -55 0 0
-75 0 -75 30 0 c23 0 30 -4 30 -20 0 -17 7 -20 45 -20 l45 0 0 -75 c0 -68 2
-75 20 -75 18 0 20 7 20 75 l0 75 40 0 c29 0 40 4 40 15 0 11 -11 15 -40 15
l-40 0 0 130 c0 109 -2 130 -15 130 -13 0 -15 -21 -15 -130z"/>
</g>
</svg>
